<svg xmlns="http://www.w3.org/2000/svg" version="1.0" width="512.000000" height="512.000000" preserveAspectRatio="xMidYMid meet"><rect id="backgroundrect" width="100%" height="100%" x="0" y="0" fill="none" stroke="none"/>


<g class="currentLayer" style=""><title>Layer 1</title><g transform="translate(0,512) scale(0.10000000149011612,-0.10000000149011612) " fill="#2f2f5f" stroke="none" id="svg_1" class="selected" fill-opacity="1">
<path d="M1280 4778 c-228 -132 -416 -241 -417 -242 -1 -1 34 -132 77 -291 44 -159 80 -296 80 -303 0 -8 -28 -48 -62 -91 -125 -155 -244 -360 -314 -543 -20 -51 -39 -97 -43 -101 -5 -5 -140 -43 -302 -85 l-294 -77 -3 -488 c-2 -367 1 -487 10 -487 6 0 142 -34 302 -76 l292 -76 23 -66 c59 -173 201 -425 329 -583 34 -43 62 -83 62 -91 0 -7 -36 -144 -80 -303 -43 -159 -78 -290 -77 -291 1 -1 189 -110 417 -242 l415 -240 222 221 222 221 70 -12 c217 -37 434 -39 659 -5 l113 17 222 -221 222 -221 405 234 c223 129 410 238 417 242 9 5 -9 86 -71 308 l-82 300 53 65 c129 156 264 387 334 572 18 49 40 92 48 96 9 4 145 41 304 82 l287 74 -2 485 -3 485 -300 79 -301 78 -23 67 c-60 176 -217 450 -343 600 l-54 64 82 301 c61 222 80 302 71 308 -7 4 -194 112 -417 242 l-405 234 -221 -220 -221 -220 -119 18 c-166 25 -439 25 -602 0 l-123 -19 -222 220 -222 221 -415 -240z m572 -325 l196 -196 109 21 c298 58 536 57 837 -4 l79 -16 196 196 c108 108 199 196 203 196 5 0 437 -246 445 -254 1 -1 -31 -123 -72 -271 l-73 -269 58 -66 c106 -119 227 -289 283 -398 54 -104 132 -291 158 -381 8 -26 21 -47 33 -52 12 -5 127 -36 256 -69 129 -34 243 -63 253 -66 16 -5 17 -26 17 -264 0 -238 -1 -259 -17 -264 -10 -3 -124 -32 -253 -66 -129 -33 -244 -64 -256 -69 -12 -5 -25 -26 -33 -52 -23 -77 -97 -262 -140 -347 -70 -139 -164 -275 -297 -427 l-62 -71 74 -269 c40 -148 72 -270 71 -271 -8 -8 -440 -254 -445 -254 -4 0 -95 88 -203 196 l-195 195 -145 -26 c-260 -48 -507 -46 -772 7 l-109 21 -196 -196 c-109 -109 -200 -197 -204 -197 -4 0 -434 245 -445 254 -1 1 31 123 72 271 l73 269 -58 66 c-187 211 -320 436 -411 695 -24 66 -46 124 -49 128 -5 6 -520 147 -537 147 -2 0 -3 117 -3 260 l0 259 38 10 c382 99 470 123 488 130 12 5 25 26 33 52 26 90 104 277 158 381 56 109 177 279 283 398 l58 66 -74 269 c-40 149 -70 271 -66 273 4 2 102 59 217 127 116 68 214 124 220 124 5 1 98 -87 207 -196z" id="svg_2" fill="#2f2f5f" fill-opacity="1"/>
<path d="M2326 3874 c-44 -8 -126 -30 -182 -49 -449 -150 -767 -498 -885 -969 -30 -115 -37 -386 -15 -513 92 -529 474 -942 996 -1078 139 -36 394 -46 537 -21 529 92 942 474 1078 996 23 88 28 133 32 275 6 198 -8 300 -62 463 -150 447 -498 764 -969 884 -109 27 -413 35 -530 12z m419 -289 c398 -70 721 -372 826 -772 29 -112 36 -311 15 -431 -69 -396 -366 -721 -756 -827 -128 -35 -316 -44 -448 -21 -499 87 -862 520 -862 1026 0 439 267 821 681 977 163 61 365 79 544 48z" id="svg_3" fill="#2f2f5f" fill-opacity="1"/>
</g></g></svg>